# xmcd
#
# Track frame offsets: 
#        150
#        14745
#        28793
#        41466
#        57528
#        71810
#        84921
#        99068
#        113450
#        127342
#        141550
#        156719
#        172465
#        188597
#        204112
#        219319
#        234631
#        249228
#        263311
#        276480
#        289692
#
# Disc length: 4051 seconds
#
# Revision: 0
# Processed by: cddbd v1.5.2PL0 Copyright (c) Steve Scherf et al.
# Submitted via: ExactAudioCopyFreeDBPlugin 1.0
#
DISCID=390fd115
DTITLE=Various Artist - Edith and Lena Wilson: Complete Recorded Works Vol. 2 (
DTITLE=1924-1931)
DYEAR=1996
DGENRE=Blues
TTITLE0=Edith Wilson - Daddy Change Your Mind
TTITLE1=Edith Wilson - I Don't Know and I Don't Care Blues
TTITLE2=Edith Wilson - How Come You Do Me Like You Do?
TTITLE3=Edith Wilson - Muscle Shoals Blues
TTITLE4=Edith Wilson - He's a Mean Mean Man
TTITLE5=Edith Wilson - Double Crossin' Papa
TTITLE6=Edith Wilson and "Doc" Straine - It's Gonna Be a Cold, Cold Wi
TTITLE6=nter
TTITLE7=Edith Wilson and "Doc" Straine - There'll Be Some Changes Made
TTITLE8=Edith Wilson - (What Did I Do to Be So) Black and Blue
TTITLE9=Edith Wilson - My Man Is Good for Nothing but Love
TTITLE10=Edith Wilson - Loving You the Way I Do
TTITLE11=Edith Wilson - The Penalty of Love
TTITLE12=Edith Wilson - My Handy Man Ain't Handy No More
TTITLE13=Edith Wilson - I'll Get Even with You
TTITLE14=Edith Wilson - My Handy Man Ain't Handy No More
TTITLE15=Lena Wilson - Baby It Upsets Me So
TTITLE16=Lena Wilson - Chiropractor Blues
TTITLE17=Lena Wilson - I'm a Stationary Mama (Lookin' for a Permanent 
TTITLE17=Man)
TTITLE18=Lena Wilson - Find Out What They Like (And How They Like It)
TTITLE19=Lena Wilson - What's Your Price?
TTITLE20=Lena Wilson - My Man o' War
EXTD=
EXTT0=
EXTT1=
EXTT2=
EXTT3=
EXTT4=
EXTT5=
EXTT6=
EXTT7=
EXTT8=
EXTT9=
EXTT10=
EXTT11=
EXTT12=
EXTT13=
EXTT14=
EXTT15=
EXTT16=
EXTT17=
EXTT18=
EXTT19=
EXTT20=
PLAYORDER=
